<svg xmlns="http://www.w3.org/2000/svg" viewBox="0 0 500 166.6">
<defs><linearGradient id="prefix__b" x1="-1104.78" y1="-394.41" x2="-1007.35" y2="-493.21" gradientTransform="matrix(.37 -.93 -.93 -.37 51.83 -1074)" gradientUnits="userSpaceOnUse"><stop offset="0" stop-color="#f26522"/><stop offset="1" stop-color="#ffc20e"/></linearGradient></defs><path id="prefix__icon" fill="url(#prefix__b)" d="M122.9 115c-20.4 23.2-50.6 30.8-79.2 19.2C8.1 119.9-9.3 79.3 5 43.6 19.4 8 60-9.3 95.6 5.1c0 0 28.3 11.2 35.7 39.6 0 0 14.5 42.5-27.7 66.8 0 0-12.6 7-31.1 4.8l-.3-3.1C102 115 113.8 86 113.8 86c16.9-46.7-23.5-61.3-23.5-61.3-27.6-11.2-56.2 1.5-66.9 27.9s3.2 54.1 28.6 67.2c0 0 32.3 19.4 67.5-6l3.4 1.2z"/>
<g fill="#FFF" class="ezzsteel-text"><path d="M352.6 54.2h-7.8V43.4h7.8V26.9h11.7v16.4H375l-3.5 10.9h-7V94h-11.7V54.2h-.2zM488.6 26.9H500v66.9h-11.4V26.9zM182.8 84.1c5.1 0 9.5-2.2 12-6.3h12.8c-4.4 11.2-13.2 17.5-24.5 17.5-7.5 0-13.8-2.6-18.9-7.9-4.8-5-7.5-11.9-7.5-18.6 0-7 2.5-13.4 7.2-18.3 5.1-5.4 11.9-8.5 18.8-8.5 8.8 0 16.6 4.1 21.9 11.4 3.4 4.5 4.8 9.8 4.8 16.6 0 .9-.1 1.8-.1 2.5h-40.5c.8 7.1 6.1 11.6 14 11.6zm-.1-31.4c-6.2 0-11.6 4.1-13.5 10.4h27.4c-1.9-6.8-6.8-10.4-13.9-10.4zM399.5 84.1c5.1 0 9.5-2.2 12-6.3h12.8c-4.4 11.2-13.2 17.5-24.5 17.5-7.5 0-13.8-2.6-18.9-7.9-4.8-5-7.5-11.9-7.5-18.6 0-7 2.5-13.4 7.2-18.3 5.1-5.4 11.9-8.5 18.8-8.5 8.8 0 16.6 4.1 21.9 11.4 3.4 4.5 4.8 9.8 4.8 16.6 0 .9-.1 1.8-.1 2.5h-40.5c.6 7.1 5.9 11.6 14 11.6zm-.1-31.4c-6.2 0-11.6 4.1-13.5 10.4h27.4c-1.9-6.8-6.9-10.4-13.9-10.4zM456.1 84.1c5.1 0 9.5-2.2 12-6.3h12.8c-4.4 11.2-13.2 17.5-24.5 17.5-7.5 0-13.8-2.6-18.9-7.9-4.8-5-7.5-11.9-7.5-18.6 0-7 2.5-13.4 7.2-18.3 5.1-5.4 11.9-8.5 18.8-8.5 8.8 0 16.6 4.1 21.9 11.4 3.4 4.5 4.8 9.8 4.8 16.6 0 .9-.1 1.8-.1 2.5H442c.9 7.1 6.1 11.6 14.1 11.6zm-.1-31.4c-6.2 0-11.7 4.1-13.5 10.4h27.4C468 56.3 463 52.7 456 52.7zM254.4 43.4l-26.1 39.2h22.4l.1 11.3h-43.6l26-39.6h-20.7V43.4h41.9zM299.4 43.4l-26.3 39.2h22.4l.1 11.3H252l26-39.6h-20.7V43.4h42.1zM308.5 79c3.4 3.5 6.9 5.3 11.2 5.3 4.5 0 7.2-2.1 7.2-5.1 0-4-3.8-4.1-10.6-6.3-9.4-3.2-13.9-7.5-13.9-15.3 0-9.1 7.5-15.8 18.6-15.8 6.9 0 12.8 2.6 18.3 8.4l-8.5 6.9c-3.1-3.4-6-5-9.4-5-3.5 0-5.9 1.8-5.9 4.7 0 3.5 3.4 4.7 10.6 6.9 9.5 2.9 14.1 6.6 14.1 14.8 0 9.8-7.6 16.7-20 16.7-7.5 0-14.2-2.8-19.5-8.1l7.8-8.1z"/></g><g fill="#FFF" class="strapline"><path d="M170 125.4l5.6-5.6-7-6.9-5.5 5.7zM172.8 129l-5.7 7.6s1.2.3 5.1 9.1c0 0-5.4 14.1-17.5 7.6 0 0 5.9 12 11 12 0 0 5.6 1.6 11.3-15.8h102.6l3.8-11.9h-17s-2.8-2.2-4-4.5c0 0 5.7-8.7 16.3-.1 0 0-2.8-13.2-10.1-13.2 0 0-6.7-1.3-12.5 11.3 0 0-1.8 3.2-.3 6.6h-78.5c.2.1-1.1-5-4.5-8.7zM305 133.1s-7.6 15.6 1 16.6h14.4l1.6-2.3 1.3 2.3h58s8.7-15.6-.3-26.6l-6.2 9.2s1.6.7 2.8 5.4h-50.5l-9.4-18.2-5 9.1 4.5 9.1h-8.1c.2.1-3.2.6-4.1-4.6zM474.2 137.8h-59.9l-9.5-18.2-5 9.1 4.5 9.1h-8.1s-3.4.4-4.1-4.7c0 0-7.6 15.6 1 16.6h14.4l1.6-2.3 1.3 2.3h63.1s2.3 0 4-1.9c0 0 4-6.3 15.8-2.6l6.6-11.4s-7 .9-13.6-2.9l-11.3-6.3s-4.3-2.5-7.2 1.2l-6.7 8.5s4.1-2.1 7-.1l6.1 3.6zM366.6 159.6l5.5-5.5 3.3 3 3.3-3 6.7 6.9-5.4 5.4-3.2-3-3.3 3.2z"/></g></svg>